# xmcd
#
# Track frame offsets:
#	150
#	19332
#	36332
#	60487
#	74490
#	91407
#	113679
#	133600
#	149510
#	162012
#	175617
#	193502
#	214407
#
# Disc length: 3180 seconds
#
# Revision: 0
# Processed by: cddbd v1.4PL0 Copyright (c) Steve Scherf et al.
# Submitted via: EasyCDDAExtractor 4.6.9.1
#
DISCID=bb0c6a0d
DTITLE=Eva Trout - Oberon
DYEAR=2000
DGENRE=Blues
TTITLE0=Ruby's Gone
TTITLE1=Last Little Piece
TTITLE2=Last Of The Happy
TTITLE3=Bright Eyed Century
TTITLE4=Like I Do
TTITLE5=Little Things
TTITLE6=Candy's Island
TTITLE7=Dead Stars On 45
TTITLE8=Love Song For The Record
TTITLE9=Down Tonight
TTITLE10=Something To Believe In
TTITLE11=Light Sleeper
TTITLE12=Secret
EXTD=
EXTT0=
EXTT1=
EXTT2=
EXTT3=
EXTT4=
EXTT5=
EXTT6=
EXTT7=
EXTT8=
EXTT9=
EXTT10=
EXTT11=
EXTT12=
PLAYORDER=
